# Blender 4.4.3
# www.blender.org
mtllib Uzi.mtl
o Uzi.001
v -0.016019 -0.009635 -0.187748
v -0.016019 0.047214 -0.187748
v 0.016555 -0.009635 -0.187731
v 0.016555 0.047214 -0.187731
v -0.012868 0.047214 0.157312
v -0.012868 0.004499 0.157312
v 0.013157 0.047214 0.157328
v 0.013157 0.004499 0.157328
v 0.016472 -0.009635 0.043719
v 0.016513 -0.009635 -0.072006
v 0.016513 0.052194 -0.072006
v 0.016472 0.052194 0.043719
v -0.016060 -0.009635 -0.072022
v -0.016101 -0.009635 0.043703
v -0.016060 0.052194 -0.072022
v 0.016472 0.004499 0.043719
v -0.016101 0.004499 0.043703
v -0.016101 0.052194 0.043703
v -0.018956 -0.011055 0.034526
v -0.018956 0.033530 0.034526
v 0.019317 -0.011055 0.034546
v 0.019317 0.033530 0.034546
v -0.019109 -0.011055 0.157325
v -0.019109 0.033530 0.157325
v 0.019386 -0.011055 0.157345
v 0.019386 0.033530 0.157345
v 0.017063 0.025568 0.149258
v 0.017048 0.025568 0.185282
v 0.011227 0.005213 0.149255
v 0.011212 0.005213 0.185280
v -0.009935 0.004475 0.149246
v -0.009950 0.004475 0.185271
v -0.017177 0.024372 0.149243
v -0.017192 0.024372 0.185268
v -0.000491 0.037409 0.149250
v -0.000506 0.037409 0.185275
v 0.007234 0.021996 0.185278
v 0.004782 0.013443 0.185277
v -0.004110 0.013133 0.185273
v -0.007153 0.021494 0.185272
v -0.000142 0.026971 0.185275
v 0.007207 0.021996 0.249121
v 0.004755 0.013443 0.249120
v -0.004137 0.013133 0.249116
v -0.007180 0.021494 0.249115
v -0.000169 0.026971 0.249118
v -0.009170 -0.034672 -0.066674
v -0.009167 -0.007410 -0.076250
v 0.009618 -0.034672 -0.066662
v 0.009621 -0.007410 -0.076239
v -0.009183 -0.034672 -0.021856
v -0.009183 -0.007410 -0.021856
v 0.009605 -0.034672 -0.021844
v 0.009605 -0.007410 -0.021844
v -0.009170 -0.099472 -0.066674
v 0.009618 -0.099472 -0.066662
v -0.009183 -0.099472 -0.021856
v 0.009605 -0.099472 -0.021844
v 0.009614 -0.034672 -0.051970
v 0.009616 -0.007410 -0.057452
v -0.009175 -0.034672 -0.051981
v -0.009173 -0.007410 -0.057464
v 0.009614 -0.099472 -0.051970
v -0.009175 -0.099472 -0.051981
v -0.009183 -0.148312 -0.021856
v 0.009605 -0.148312 -0.021844
v 0.009614 -0.148312 -0.051970
v -0.009175 -0.148312 -0.051981
v 0.004966 -0.017388 -0.200427
v 0.004967 -0.017388 -0.088459
v 0.004966 0.035206 -0.200427
v 0.004967 0.035206 -0.088459
v 0.004966 0.019813 -0.200427
v 0.004967 0.019813 -0.088459
v 0.004966 -0.017388 -0.135486
v 0.004966 0.035206 -0.135486
v 0.004966 0.019813 -0.135486
v 0.004966 -0.017388 -0.208408
v 0.004966 0.019813 -0.208408
v 0.004966 -0.100703 -0.200427
v 0.004966 -0.033668 -0.167726
v 0.004966 -0.100703 -0.208408
v -0.011074 0.064389 -0.145182
v -0.011074 0.036885 -0.145182
v 0.011609 0.064389 -0.145171
v 0.011609 0.036885 -0.145171
v 0.008659 0.064389 -0.145174
v -0.008125 0.064389 -0.145178
v -0.008125 0.036885 -0.145178
v 0.008659 0.036885 -0.145174
v -0.011074 0.064389 -0.181746
v -0.011074 0.036885 -0.181746
v 0.011609 0.064389 -0.181734
v 0.011609 0.036885 -0.181734
v 0.008659 0.064389 -0.181738
v -0.008125 0.064389 -0.181742
v -0.008125 0.036885 -0.181742
v 0.008659 0.036885 -0.181738
v 0.011609 0.073792 -0.157358
v 0.011609 0.073792 -0.169546
v 0.011609 0.036885 -0.169546
v 0.011609 0.036885 -0.157358
v 0.008659 0.073792 -0.157362
v 0.008659 0.073792 -0.169550
v 0.008659 0.036885 -0.169550
v 0.008659 0.036885 -0.157362
v -0.011074 0.073792 -0.157370
v -0.011074 0.073792 -0.169558
v -0.008125 0.073792 -0.169554
v -0.008125 0.073792 -0.157366
v -0.008125 0.036885 -0.169554
v -0.008125 0.036885 -0.157366
v -0.011074 0.036885 -0.157370
v -0.011074 0.036885 -0.169558
v -0.008326 0.061627 0.153956
v -0.008326 0.040788 0.153956
v 0.008861 0.061627 0.153964
v 0.008861 0.040788 0.153964
v 0.006626 0.061627 0.153961
v -0.006091 0.061627 0.153959
v -0.006091 0.040788 0.153959
v 0.006626 0.040788 0.153961
v -0.008326 0.061627 0.126253
v -0.008326 0.040788 0.126253
v 0.008861 0.061627 0.126261
v 0.008861 0.040788 0.126261
v 0.006626 0.061627 0.126258
v -0.006091 0.061627 0.126255
v -0.006091 0.040788 0.126255
v 0.006626 0.040788 0.126258
v 0.008861 0.068750 0.144730
v 0.008861 0.068750 0.135496
v 0.008861 0.040788 0.135496
v 0.008861 0.040788 0.144730
v 0.006626 0.068750 0.144727
v 0.006626 0.068750 0.135493
v 0.006626 0.040788 0.135493
v 0.006626 0.040788 0.144727
v -0.008326 0.068750 0.144721
v -0.008326 0.068750 0.135487
v -0.006091 0.068750 0.135490
v -0.006091 0.068750 0.144724
v -0.006091 0.040788 0.135490
v -0.006091 0.040788 0.144724
v -0.008326 0.040788 0.144721
v -0.008326 0.040788 0.135487
v -0.001503 0.044871 0.141750
v -0.001503 0.066206 0.141750
v -0.001503 0.044871 0.138743
v -0.001503 0.066206 0.138743
v 0.001503 0.044871 0.141750
v 0.001503 0.066206 0.141750
v 0.001503 0.044871 0.138743
v 0.001503 0.066206 0.138743
v -0.003877 0.048488 0.073566
v -0.003877 0.068748 0.073566
v -0.009359 0.048488 0.068084
v -0.009359 0.068748 0.068084
v -0.009359 0.048488 0.060331
v -0.009359 0.068748 0.060331
v -0.003877 0.048488 0.054848
v -0.003877 0.068748 0.054848
v 0.003876 0.048488 0.054848
v 0.003876 0.068748 0.054848
v 0.009359 0.048488 0.060331
v 0.009359 0.068748 0.060331
v 0.009359 0.048488 0.068084
v 0.009359 0.068748 0.068084
v 0.003876 0.048488 0.073566
v 0.003876 0.068748 0.073566
v -0.003877 0.059898 0.073566
v -0.009359 0.059898 0.068084
v -0.009359 0.059898 0.060331
v -0.003877 0.059898 0.054848
v 0.003876 0.059898 0.054848
v 0.009359 0.059898 0.060331
v 0.009359 0.059898 0.068084
v 0.003876 0.059898 0.073566
v -0.004966 -0.017388 -0.200427
v -0.004966 -0.017388 -0.088459
v -0.004966 0.035206 -0.200427
v -0.004966 0.035206 -0.088459
v -0.004966 0.019813 -0.200427
v -0.004966 0.019813 -0.088459
v -0.004966 -0.017388 -0.135486
v -0.004966 0.035206 -0.135486
v -0.004966 0.019813 -0.135486
v -0.004966 -0.017388 -0.208408
v -0.004966 0.019813 -0.208408
v -0.004966 -0.100703 -0.200427
v -0.004966 -0.033668 -0.167726
v -0.004966 -0.100703 -0.208408
v -0.003781 -0.034672 -0.021856
v 0.004192 -0.034672 -0.021844
v 0.004190 -0.045090 -0.000785
v -0.003784 -0.045090 -0.000796
v 0.004186 -0.042209 0.030028
v -0.003787 -0.042209 0.030017
v 0.004185 -0.006740 0.032245
v -0.003788 -0.006740 0.032233
v 0.004185 -0.006740 -0.003452
v -0.003788 -0.006740 -0.003463
v 0.004185 -0.006740 0.001607
v -0.003788 -0.006740 0.001596
v 0.003455 -0.022114 -0.003758
v -0.003057 -0.022114 -0.003767
v 0.003455 -0.022114 0.000374
v -0.003057 -0.022114 0.000364
v 0.002435 -0.035512 0.005868
v -0.002037 -0.035517 0.005864
v 0.002435 -0.033307 0.007653
v -0.002037 -0.033312 0.007649
vn 0.0005 -0.0000 -1.0000
vn 0.9996 -0.0000 0.0292
vn -1.0000 -0.0000 -0.0004
vn -0.0000 0.9991 -0.0430
vn -0.0000 1.0000 -0.0000
vn -0.0000 -1.0000 -0.0000
vn 1.0000 -0.0000 0.0004
vn -0.0000 -0.0000 -1.0000
vn -0.0000 -0.0000 1.0000
vn -0.0005 -0.0000 1.0000
vn -0.9996 -0.0000 0.0285
vn -0.0000 0.9990 0.0438
vn -0.0006 -0.0000 1.0000
vn 1.0000 -0.0000 -0.0006
vn -1.0000 -0.0000 -0.0012
vn 0.9613 -0.2756 0.0004
vn 0.0349 -0.9994 -0.0000
vn -0.9397 -0.3420 -0.0004
vn -0.0004 -0.0000 1.0000
vn -0.6157 0.7880 -0.0003
vn 0.5592 0.8290 0.0002
vn 0.0004 -0.0000 -1.0000
vn 0.0006 -0.3314 -0.9435
vn 1.0000 -0.0000 0.0003
vn -1.0000 -0.0000 -0.0003
vn 0.0006 -0.0000 -1.0000
vn -1.0000 -0.0000 -0.0000
vn 0.0013 -0.0000 -1.0000
vn -0.0013 -0.0000 1.0000
vn -0.0008 -0.7918 0.6108
vn 1.0000 -0.0000 -0.0000
vn 0.0008 -0.7918 -0.6108
vn -0.7071 -0.0000 0.7071
vn -0.7071 -0.0000 -0.7071
vn 0.7071 -0.0000 -0.7071
vn 0.7071 -0.0000 0.7071
vn -0.0000 -0.4603 0.8878
vn -0.0000 0.4384 -0.8988
vn -0.0000 0.8927 -0.4507
vn 0.0006 -0.8963 -0.4434
vn -0.0001 -0.9957 0.0931
vn -0.0014 -0.0624 0.9981
vn -0.9989 0.0475 -0.0000
vn 0.9971 0.0759 -0.0000
vn 0.9989 0.0475 -0.0000
vn -0.0014 -0.0198 0.9998
vn 0.0014 0.0799 -0.9968
vn -0.0000 0.6291 -0.7773
vn -0.0014 0.5835 0.8121
vn 0.0012 -0.5452 -0.8383
vn -0.9968 0.0504 -0.0622
vn -0.0000 -0.4602 0.8878
vn 0.9968 0.0503 -0.0622
vn -0.0012 0.5835 0.8121
vn 0.0014 -0.5453 -0.8383
vn -0.9971 0.0759 -0.0000
vt 0.069771 0.793667
vt 0.069806 0.598831
vt 0.069771 0.598831
vt 0.557663 0.647272
vt 0.797131 0.793667
vt 0.797131 0.647272
vt 0.313700 0.598831
vt 0.069806 0.793667
vt 0.313700 0.810734
vt 0.313734 0.810734
vt 0.557629 0.810734
vt 0.557663 0.810734
vt 0.313734 0.598831
vt 0.557629 0.598831
vt 0.557663 0.598831
vt 0.557629 0.647272
vt 0.797096 0.647272
vt 0.797096 0.793667
vt 0.538285 0.746768
vt 0.538327 0.593966
vt 0.538285 0.593966
vt 0.538327 0.746768
vt 0.797166 0.593966
vt 0.797166 0.746768
vt 0.797124 0.593966
vt 0.797124 0.746768
vt 0.780120 0.719480
vt 0.856048 0.649721
vt 0.780114 0.649721
vt 0.780096 0.647188
vt 0.856023 0.715383
vt 0.780089 0.715383
vt 0.856038 0.724290
vt 0.856038 0.760062
vt 0.780104 0.760062
vt 0.856032 0.705516
vt 0.990603 0.676862
vt 0.990601 0.705516
vt 0.856034 0.676862
vt 0.856029 0.647188
vt 0.856053 0.719480
vt 0.856045 0.707238
vt 0.856043 0.677927
vt 0.990614 0.707238
vt 0.990612 0.677927
vt 0.990607 0.724290
vt 0.324974 0.513026
vt 0.304813 0.606456
vt 0.324999 0.513026
vt 0.355967 0.513026
vt 0.419467 0.606456
vt 0.419467 0.513026
vt 0.419443 0.513026
vt 0.344388 0.606456
vt 0.355943 0.513026
vt 0.355967 0.290941
vt 0.344412 0.606456
vt 0.355943 0.123556
vt 0.355943 0.290941
vt 0.324974 0.290941
vt 0.419467 0.290941
vt 0.419443 0.290941
vt 0.324999 0.290941
vt 0.419443 0.606456
vt 0.355967 0.123556
vt 0.419443 0.123556
vt 0.419467 0.123556
vt 0.279055 0.699755
vt 0.179931 0.752512
vt 0.179931 0.699755
vt 0.279055 0.572259
vt 0.179931 0.572259
vt 0.043046 0.699755
vt 0.043046 0.572259
vt 0.043046 0.752512
vt 0.026224 0.572259
vt 0.043046 0.286720
vt 0.111973 0.516464
vt 0.159517 0.852530
vt 0.159509 0.758268
vt 0.159509 0.852530
vt 0.159501 0.852530
vt 0.159492 0.758268
vt 0.159492 0.852530
vt 0.082439 0.758268
vt 0.082447 0.852530
vt 0.082439 0.852530
vt 0.082423 0.758268
vt 0.082431 0.852530
vt 0.082423 0.852530
vt 0.108137 0.758268
vt 0.082447 0.758268
vt 0.108113 0.884753
vt 0.108121 0.884753
vt 0.108121 0.758268
vt 0.082431 0.758268
vt 0.108129 0.884753
vt 0.108137 0.884753
vt 0.108129 0.758268
vt 0.108113 0.758268
vt 0.133819 0.758268
vt 0.133819 0.884753
vt 0.133827 0.758268
vt 0.133827 0.884753
vt 0.159517 0.758268
vt 0.133811 0.758268
vt 0.133802 0.758268
vt 0.133802 0.884753
vt 0.159501 0.758268
vt 0.133811 0.884753
vt 0.790041 0.843061
vt 0.790034 0.771641
vt 0.790034 0.843061
vt 0.790028 0.843061
vt 0.790022 0.771641
vt 0.790022 0.843061
vt 0.731641 0.771641
vt 0.731647 0.843061
vt 0.731641 0.843061
vt 0.731629 0.771641
vt 0.731635 0.843061
vt 0.731629 0.843061
vt 0.751112 0.771641
vt 0.731647 0.771641
vt 0.751094 0.867476
vt 0.751099 0.867476
vt 0.751099 0.771641
vt 0.731635 0.771641
vt 0.751106 0.867476
vt 0.751112 0.867476
vt 0.751106 0.771641
vt 0.751094 0.771641
vt 0.770570 0.771641
vt 0.770570 0.867476
vt 0.770576 0.771641
vt 0.770576 0.867476
vt 0.790041 0.771641
vt 0.770563 0.771641
vt 0.770558 0.771641
vt 0.770558 0.867476
vt 0.790028 0.771641
vt 0.770563 0.867476
vt 0.764294 0.858757
vt 0.757957 0.785636
vt 0.764294 0.785636
vt 0.757957 0.858757
vt 0.620575 0.867467
vt 0.609019 0.837138
vt 0.620575 0.837138
vt 0.609019 0.867467
vt 0.592677 0.837138
vt 0.592677 0.867467
vt 0.581122 0.837138
vt 0.581122 0.867467
vt 0.581122 0.798033
vt 0.592677 0.798033
vt 0.620575 0.798033
vt 0.609019 0.798033
vt 0.026224 0.699755
vt 0.026224 0.286720
vt 0.279055 0.752512
vt 0.463832 0.477318
vt 0.463856 0.477318
vt 0.528780 0.487195
vt 0.528805 0.487195
vt 0.533453 0.608752
vt 0.458235 0.608752
vt 0.466299 0.556065
vt 0.468898 0.608752
vt 0.468874 0.608752
vt 0.466279 0.556065
vt 0.477871 0.510128
vt 0.457570 0.556065
vt 0.458210 0.608752
vt 0.457590 0.556065
vt 0.481633 0.517686
vt 0.477880 0.510145
vt 0.481642 0.517703
vt 0.304789 0.606456
vt 0.533477 0.608752
s 0
usemtl Uzi.001
f 2/1/1 3/2/1 1/3/1
f 16/4/2 7/5/2 8/6/2
f 13/7/3 2/1/3 1/3/3
f 4/8/4 15/9/4 11/10/4
f 11/10/5 18/11/5 12/12/5
f 3/2/6 13/7/6 1/3/6
f 10/13/6 14/14/6 13/7/6
f 18/11/3 13/7/3 14/14/3
f 4/8/7 10/13/7 3/2/7
f 11/10/7 9/15/7 10/13/7
f 18/11/8 14/14/8 17/16/8
f 9/15/9 12/12/9 16/4/9
f 9/15/10 17/16/10 14/14/10
f 16/4/6 6/17/6 17/16/6
f 17/16/11 5/18/11 18/11/11
f 12/12/12 5/18/12 7/5/12
f 6/17/13 7/5/13 5/18/13
f 20/19/1 21/20/1 19/21/1
f 22/22/14 25/23/14 21/20/14
f 26/24/10 23/25/10 25/23/10
f 24/26/15 19/21/15 23/25/15
f 21/20/6 23/25/6 19/21/6
f 22/22/5 24/26/5 26/24/5
f 27/27/16 30/28/16 29/29/16
f 30/28/17 31/30/17 29/29/17
f 31/30/18 34/31/18 33/32/18
f 34/31/19 41/33/19 36/34/19
f 34/31/20 35/35/20 33/32/20
f 36/34/21 27/27/21 35/35/21
f 29/29/22 33/32/22 35/35/22
f 40/36/18 44/37/18 45/38/18
f 30/28/19 39/39/19 32/40/19
f 28/41/19 41/33/19 37/42/19
f 28/41/19 38/43/19 30/28/19
f 32/40/19 40/36/19 34/31/19
f 42/44/19 45/38/19 44/37/19
f 37/42/16 43/45/16 38/43/16
f 40/36/20 46/46/20 41/33/20
f 38/43/17 44/37/17 39/39/17
f 41/33/21 42/44/21 37/42/21
f 47/47/23 50/48/23 49/49/23
f 59/50/24 54/51/24 53/52/24
f 54/51/13 51/53/13 53/52/13
f 62/54/25 47/47/25 61/55/25
f 53/52/24 63/56/24 59/50/24
f 50/48/5 62/54/5 60/57/5
f 63/56/26 68/58/26 64/59/26
f 49/49/26 55/60/26 47/47/26
f 51/53/13 58/61/13 53/52/13
f 47/47/25 64/59/25 61/55/25
f 61/55/25 57/62/25 51/53/25
f 56/63/6 64/59/6 55/60/6
f 60/57/5 52/64/5 54/51/5
f 59/50/24 56/63/24 49/49/24
f 52/64/25 61/55/25 51/53/25
f 49/49/24 60/57/24 59/50/24
f 67/65/6 65/66/6 68/58/6
f 57/62/13 66/67/13 58/61/13
f 64/59/25 65/66/25 57/62/25
f 58/61/24 67/65/24 63/56/24
f 74/68/27 76/69/27 77/70/27
f 70/71/27 77/70/27 75/72/27
f 75/72/27 73/73/27 69/74/27
f 77/70/27 71/75/27 73/73/27
f 73/73/27 78/76/27 69/74/27
f 78/76/27 80/77/27 69/74/27
f 69/74/27 81/78/27 75/72/27
f 85/79/28 90/80/28 87/81/28
f 88/82/28 84/83/28 83/84/28
f 98/85/29 93/86/29 95/87/29
f 92/88/29 96/89/29 91/90/29
f 101/91/27 93/86/27 94/92/27
f 108/93/30 96/89/30 109/94/30
f 111/95/27 96/89/27 97/96/27
f 104/97/30 93/86/30 100/98/30
f 105/99/5 94/92/5 98/85/5
f 114/100/31 91/90/31 108/93/31
f 105/99/31 95/87/31 104/97/31
f 114/100/5 97/96/5 92/88/5
f 87/81/31 106/101/31 103/102/31
f 106/101/31 104/97/31 103/102/31
f 90/80/5 102/103/5 106/101/5
f 106/101/5 101/91/5 105/99/5
f 87/81/32 99/104/32 85/79/32
f 103/102/6 100/98/6 99/104/6
f 85/79/27 102/103/27 86/105/27
f 99/104/27 101/91/27 102/103/27
f 84/83/5 112/106/5 113/107/5
f 113/107/5 111/95/5 114/100/5
f 83/84/31 113/107/31 107/108/31
f 113/107/31 108/93/31 107/108/31
f 88/82/27 112/106/27 89/109/27
f 110/110/27 111/95/27 112/106/27
f 83/84/32 110/110/32 88/82/32
f 107/108/6 109/94/6 110/110/6
f 117/111/28 122/112/28 119/113/28
f 120/114/28 116/115/28 115/116/28
f 130/117/29 125/118/29 127/119/29
f 124/120/29 128/121/29 123/122/29
f 133/123/27 125/118/27 126/124/27
f 140/125/30 128/121/30 141/126/30
f 143/127/27 128/121/27 129/128/27
f 136/129/30 125/118/30 132/130/30
f 137/131/5 126/124/5 130/117/5
f 146/132/31 123/122/31 140/125/31
f 137/131/31 127/119/31 136/129/31
f 146/132/5 129/128/5 124/120/5
f 119/113/31 138/133/31 135/134/31
f 138/133/31 136/129/31 135/134/31
f 122/112/5 134/135/5 138/133/5
f 138/133/5 133/123/5 137/131/5
f 119/113/32 131/136/32 117/111/32
f 135/134/6 132/130/6 131/136/6
f 117/111/27 134/135/27 118/137/27
f 131/136/27 133/123/27 134/135/27
f 116/115/5 144/138/5 145/139/5
f 145/139/5 143/127/5 146/132/5
f 115/116/31 145/139/31 139/140/31
f 145/139/31 140/125/31 139/140/31
f 120/114/27 144/138/27 121/141/27
f 142/142/27 143/127/27 144/138/27
f 115/116/32 142/142/32 120/114/32
f 139/140/6 141/126/6 142/142/6
f 148/143/27 149/144/27 147/145/27
f 150/146/8 153/144/8 149/144/8
f 154/146/31 151/145/31 153/144/31
f 152/143/9 147/145/9 151/145/9
f 153/144/6 147/145/6 149/144/6
f 154/146/5 148/143/5 152/143/5
f 156/147/33 172/148/33 171/149/33
f 158/150/27 173/151/27 172/148/27
f 160/152/34 174/153/34 173/151/34
f 174/153/31 156/147/31 171/149/31
f 164/154/35 176/151/35 175/153/35
f 166/152/31 177/148/31 176/151/31
f 164/154/5 168/150/5 166/152/5
f 168/150/36 178/149/36 177/148/36
f 156/147/5 160/152/5 158/150/5
f 161/155/6 165/156/6 169/157/6
f 178/149/9 155/157/9 169/157/9
f 177/148/36 169/157/36 167/158/36
f 176/151/31 167/158/31 165/156/31
f 175/153/35 165/156/35 163/155/35
f 174/153/8 163/155/8 161/155/8
f 173/151/34 161/155/34 159/156/34
f 172/148/27 159/156/27 157/158/27
f 171/149/33 157/158/33 155/157/33
f 175/153/5 171/149/5 178/149/5
f 175/153/27 170/147/27 164/154/27
f 73/73/27 71/75/27 79/159/27
f 184/68/27 186/69/27 187/70/27
f 180/71/27 187/70/27 185/72/27
f 185/72/27 183/73/27 179/74/27
f 187/70/27 181/75/27 183/73/27
f 183/73/27 188/76/27 179/74/27
f 188/76/27 190/77/27 179/74/27
f 179/74/27 191/78/27 185/72/27
f 183/73/27 181/75/27 189/159/27
f 189/159/9 78/76/9 79/159/9
f 181/75/37 79/159/37 71/75/37
f 188/76/9 82/160/9 78/76/9
f 82/160/5 190/77/5 80/77/5
f 80/77/38 191/78/38 81/78/38
f 81/78/39 185/72/39 75/72/39
f 75/72/5 180/71/5 70/71/5
f 180/71/8 74/68/8 70/71/8
f 184/68/8 72/161/8 74/68/8
f 182/161/6 76/69/6 72/161/6
f 186/69/6 71/75/6 76/69/6
f 194/52/40 196/162/40 193/53/40
f 195/163/41 198/164/41 196/162/41
f 197/165/42 200/166/42 198/164/42
f 201/167/43 207/168/43 203/169/43
f 200/166/5 203/169/5 204/170/5
f 208/171/44 210/172/44 206/173/44
f 202/174/45 208/171/45 206/173/45
f 202/174/46 205/175/46 201/167/46
f 204/170/47 207/168/47 208/171/47
f 212/176/48 209/177/48 210/172/48
f 205/175/49 210/172/49 209/177/49
f 207/168/50 212/176/50 208/171/50
f 207/168/51 209/177/51 211/178/51
f 2/1/1 4/8/1 3/2/1
f 16/4/2 12/12/2 7/5/2
f 13/7/3 15/9/3 2/1/3
f 4/8/4 2/1/4 15/9/4
f 11/10/5 15/9/5 18/11/5
f 3/2/6 10/13/6 13/7/6
f 10/13/6 9/15/6 14/14/6
f 18/11/3 15/9/3 13/7/3
f 4/8/7 11/10/7 10/13/7
f 11/10/7 12/12/7 9/15/7
f 9/15/10 16/4/10 17/16/10
f 16/4/6 8/6/6 6/17/6
f 17/16/11 6/17/11 5/18/11
f 12/12/12 18/11/12 5/18/12
f 6/17/13 8/6/13 7/5/13
f 20/19/1 22/22/1 21/20/1
f 22/22/14 26/24/14 25/23/14
f 26/24/10 24/26/10 23/25/10
f 24/26/15 20/19/15 19/21/15
f 21/20/6 25/23/6 23/25/6
f 22/22/5 20/19/5 24/26/5
f 27/27/16 28/41/16 30/28/16
f 30/28/17 32/40/17 31/30/17
f 31/30/18 32/40/18 34/31/18
f 34/31/19 40/36/19 41/33/19
f 34/31/20 36/34/20 35/35/20
f 36/34/21 28/41/21 27/27/21
f 35/35/22 27/27/22 29/29/22
f 29/29/22 31/30/22 33/32/22
f 40/36/18 39/39/18 44/37/18
f 30/28/19 38/43/19 39/39/19
f 28/41/19 36/34/19 41/33/19
f 28/41/19 37/42/19 38/43/19
f 32/40/19 39/39/19 40/36/19
f 44/37/19 43/45/19 42/44/19
f 42/44/19 46/46/19 45/38/19
f 37/42/16 42/44/16 43/45/16
f 40/36/20 45/38/20 46/46/20
f 38/43/17 43/45/17 44/37/17
f 41/33/21 46/46/21 42/44/21
f 47/47/23 48/179/23 50/48/23
f 59/50/24 60/57/24 54/51/24
f 54/51/13 52/64/13 51/53/13
f 62/54/25 48/179/25 47/47/25
f 53/52/24 58/61/24 63/56/24
f 50/48/5 48/179/5 62/54/5
f 63/56/26 67/65/26 68/58/26
f 49/49/26 56/63/26 55/60/26
f 51/53/13 57/62/13 58/61/13
f 47/47/25 55/60/25 64/59/25
f 61/55/25 64/59/25 57/62/25
f 56/63/6 63/56/6 64/59/6
f 60/57/5 62/54/5 52/64/5
f 59/50/24 63/56/24 56/63/24
f 52/64/25 62/54/25 61/55/25
f 49/49/24 50/48/24 60/57/24
f 67/65/6 66/67/6 65/66/6
f 57/62/13 65/66/13 66/67/13
f 64/59/25 68/58/25 65/66/25
f 58/61/24 66/67/24 67/65/24
f 74/68/27 72/161/27 76/69/27
f 70/71/27 74/68/27 77/70/27
f 75/72/27 77/70/27 73/73/27
f 77/70/27 76/69/27 71/75/27
f 73/73/27 79/159/27 78/76/27
f 78/76/27 82/160/27 80/77/27
f 69/74/27 80/77/27 81/78/27
f 85/79/28 86/105/28 90/80/28
f 88/82/28 89/109/28 84/83/28
f 98/85/29 94/92/29 93/86/29
f 92/88/29 97/96/29 96/89/29
f 101/91/27 100/98/27 93/86/27
f 108/93/30 91/90/30 96/89/30
f 111/95/27 109/94/27 96/89/27
f 104/97/30 95/87/30 93/86/30
f 105/99/5 101/91/5 94/92/5
f 114/100/31 92/88/31 91/90/31
f 105/99/31 98/85/31 95/87/31
f 114/100/5 111/95/5 97/96/5
f 87/81/31 90/80/31 106/101/31
f 106/101/31 105/99/31 104/97/31
f 90/80/5 86/105/5 102/103/5
f 106/101/5 102/103/5 101/91/5
f 87/81/32 103/102/32 99/104/32
f 103/102/6 104/97/6 100/98/6
f 85/79/27 99/104/27 102/103/27
f 99/104/27 100/98/27 101/91/27
f 84/83/5 89/109/5 112/106/5
f 113/107/5 112/106/5 111/95/5
f 83/84/31 84/83/31 113/107/31
f 113/107/31 114/100/31 108/93/31
f 88/82/27 110/110/27 112/106/27
f 110/110/27 109/94/27 111/95/27
f 83/84/32 107/108/32 110/110/32
f 107/108/6 108/93/6 109/94/6
f 117/111/28 118/137/28 122/112/28
f 120/114/28 121/141/28 116/115/28
f 130/117/29 126/124/29 125/118/29
f 124/120/29 129/128/29 128/121/29
f 133/123/27 132/130/27 125/118/27
f 140/125/30 123/122/30 128/121/30
f 143/127/27 141/126/27 128/121/27
f 136/129/30 127/119/30 125/118/30
f 137/131/5 133/123/5 126/124/5
f 146/132/31 124/120/31 123/122/31
f 137/131/31 130/117/31 127/119/31
f 146/132/5 143/127/5 129/128/5
f 119/113/31 122/112/31 138/133/31
f 138/133/31 137/131/31 136/129/31
f 122/112/5 118/137/5 134/135/5
f 138/133/5 134/135/5 133/123/5
f 119/113/32 135/134/32 131/136/32
f 135/134/6 136/129/6 132/130/6
f 117/111/27 131/136/27 134/135/27
f 131/136/27 132/130/27 133/123/27
f 116/115/5 121/141/5 144/138/5
f 145/139/5 144/138/5 143/127/5
f 115/116/31 116/115/31 145/139/31
f 145/139/31 146/132/31 140/125/31
f 120/114/27 142/142/27 144/138/27
f 142/142/27 141/126/27 143/127/27
f 115/116/32 139/140/32 142/142/32
f 139/140/6 140/125/6 141/126/6
f 148/143/27 150/146/27 149/144/27
f 150/146/8 154/146/8 153/144/8
f 154/146/31 152/143/31 151/145/31
f 152/143/9 148/143/9 147/145/9
f 153/144/6 151/145/6 147/145/6
f 154/146/5 150/146/5 148/143/5
f 156/147/33 158/150/33 172/148/33
f 158/150/27 160/152/27 173/151/27
f 160/152/34 162/154/34 174/153/34
f 174/153/31 162/154/31 156/147/31
f 164/154/35 166/152/35 176/151/35
f 166/152/31 168/150/31 177/148/31
f 164/154/5 170/147/5 168/150/5
f 168/150/36 170/147/36 178/149/36
f 156/147/5 162/154/5 160/152/5
f 169/157/6 155/157/6 157/158/6
f 157/158/6 159/156/6 161/155/6
f 161/155/6 163/155/6 165/156/6
f 165/156/6 167/158/6 169/157/6
f 169/157/6 157/158/6 161/155/6
f 178/149/9 171/149/9 155/157/9
f 177/148/36 178/149/36 169/157/36
f 176/151/31 177/148/31 167/158/31
f 175/153/35 176/151/35 165/156/35
f 174/153/8 175/153/8 163/155/8
f 173/151/34 174/153/34 161/155/34
f 172/148/27 173/151/27 159/156/27
f 171/149/33 172/148/33 157/158/33
f 175/153/5 174/153/5 171/149/5
f 175/153/27 178/149/27 170/147/27
f 184/68/27 182/161/27 186/69/27
f 180/71/27 184/68/27 187/70/27
f 185/72/27 187/70/27 183/73/27
f 187/70/27 186/69/27 181/75/27
f 183/73/27 189/159/27 188/76/27
f 188/76/27 192/160/27 190/77/27
f 179/74/27 190/77/27 191/78/27
f 189/159/9 188/76/9 78/76/9
f 181/75/52 189/159/52 79/159/52
f 188/76/9 192/160/9 82/160/9
f 82/160/5 192/160/5 190/77/5
f 80/77/38 190/77/38 191/78/38
f 81/78/39 191/78/39 185/72/39
f 75/72/5 185/72/5 180/71/5
f 180/71/8 184/68/8 74/68/8
f 184/68/8 182/161/8 72/161/8
f 182/161/6 186/69/6 76/69/6
f 186/69/6 181/75/6 71/75/6
f 194/52/40 195/163/40 196/162/40
f 195/163/41 197/165/41 198/164/41
f 197/165/42 199/180/42 200/166/42
f 201/167/43 205/175/43 207/168/43
f 200/166/5 199/180/5 203/169/5
f 208/171/53 212/176/53 210/172/53
f 202/174/45 204/170/45 208/171/45
f 202/174/46 206/173/46 205/175/46
f 204/170/47 203/169/47 207/168/47
f 212/176/48 211/178/48 209/177/48
f 205/175/54 206/173/54 210/172/54
f 207/168/55 211/178/55 212/176/55
f 207/168/56 205/175/56 209/177/56
